<svg width="66" height="66" viewBox="0 0 66 66" fill="none" xmlns="http://www.w3.org/2000/svg">
<mask id="mask0_240_867" style="mask-type:alpha" maskUnits="userSpaceOnUse" x="0" y="0" width="66" height="66">
<rect width="66" height="66" rx="4" fill="white"/>
</mask>
<g mask="url(#mask0_240_867)">
<rect x="0.5" y="0.5" width="65" height="65" rx="3.5" stroke="white"/>
<path fill-rule="evenodd" clip-rule="evenodd" d="M13.6642 35.3195C15.4329 36.0712 17.3717 36.4836 19.3797 36.4836C21.7626 36.4836 24.0278 35.9128 26.0256 34.8926C28.0234 35.9128 30.2887 36.4836 32.6715 36.4836C35.0544 36.4836 37.3197 35.9128 39.3174 34.8926C41.3152 35.9128 43.5803 36.4836 45.9635 36.4836C47.9714 36.4836 49.9101 36.0712 51.6788 35.3195V46.2963C51.6788 50.1133 48.5845 53.208 44.7671 53.208H20.5759C16.7587 53.208 13.6642 50.1133 13.6642 46.2963V35.3195Z" fill="white"/>
<path d="M19.3818 33.4262C22.0992 33.4262 24.512 32.1736 26.0276 30.2369C27.5433 32.1736 29.9561 33.4262 32.6736 33.4262C35.3911 33.4262 37.8038 32.1736 39.3195 30.2369C40.8352 32.1736 43.2479 33.4262 45.9656 33.4262C50.5536 33.4262 54.2728 29.8556 54.2728 25.4511C54.2728 23.3244 52.6112 16.7051 45.9656 14.153C35.6534 12.6226 29.8334 12.6087 19.3818 14.153C12.7358 16.7051 11.0743 23.3244 11.0743 25.4511C11.0743 29.8556 14.7937 33.4262 19.3818 33.4262Z" fill="url(#paint0_linear_240_867)"/>
<path d="M25.7618 40.8993V53.2109H39.5854V40.8993C39.5854 38.9907 38.0381 37.4434 36.1295 37.4434H29.2177C27.3091 37.4434 25.7618 38.9907 25.7618 40.8993Z" fill="#D64210"/>
</g>
<defs>
<linearGradient id="paint0_linear_240_867" x1="32.6736" y1="13" x2="32.6736" y2="33.4262" gradientUnits="userSpaceOnUse">
<stop stop-color="#B4370D"/>
<stop offset="1" stop-color="#EC4912"/>
</linearGradient>
</defs>
</svg>
