<svg width="66" height="66" viewBox="0 0 66 66" fill="none" xmlns="http://www.w3.org/2000/svg">
<mask id="mask0_240_852" style="mask-type:alpha" maskUnits="userSpaceOnUse" x="0" y="0" width="66" height="66">
<rect width="66" height="66" rx="4" fill="#D9D9D9"/>
</mask>
<g mask="url(#mask0_240_852)">
<path d="M51.2222 -8H14.7778C2.19796 -8 -8 2.19796 -8 14.7778V51.2222C-8 63.802 2.19796 74 14.7778 74H51.2222C63.802 74 74 63.802 74 51.2222V14.7778C74 2.19796 63.802 -8 51.2222 -8Z" fill="url(#paint0_linear_240_852)"/>
<path d="M30.3712 16.265C29.9304 16.265 29.5076 16.4395 29.1959 16.7501C28.8843 17.0607 28.7091 17.4819 28.7091 17.9212V25.9373C28.7104 26.716 28.4721 27.4764 28.0263 28.116C27.5805 28.7557 26.9488 29.2438 26.2161 29.5147V17.6562C26.2161 17.217 26.041 16.7957 25.7293 16.4851C25.4176 16.1745 24.9948 16 24.554 16C24.1132 16 23.6905 16.1745 23.3788 16.4851C23.0671 16.7957 22.892 17.217 22.892 17.6562V29.4898C22.1499 29.2317 21.5055 28.7523 21.0462 28.1168C20.5868 27.4813 20.3347 26.7204 20.3241 25.9373V17.9212C20.3241 17.4819 20.149 17.0607 19.8373 16.7501C19.5256 16.4395 19.1029 16.265 18.662 16.265C18.2212 16.265 17.7985 16.4395 17.4868 16.7501C17.1751 17.0607 17 17.4819 17 17.9212V25.9373C17.0015 27.6031 17.5882 29.2158 18.6584 30.4956C19.7286 31.7753 21.2147 32.6412 22.8587 32.943V47.3438C22.8587 47.783 23.0338 48.2043 23.3455 48.5149C23.6572 48.8255 24.08 49 24.5208 49C24.9616 49 25.3843 48.8255 25.696 48.5149C26.0077 48.2043 26.1828 47.783 26.1828 47.3438V32.9182C27.8192 32.6078 29.2957 31.7382 30.3576 30.4593C31.4195 29.1804 32.0004 27.5723 32 25.9124V17.9212C32.0001 17.4876 31.8295 17.0713 31.525 16.7616C31.2205 16.452 30.8062 16.2737 30.3712 16.265Z" fill="#FF9F7A"/>
<path d="M44.5 49C44.1022 49 43.7206 48.828 43.4393 48.5217C43.158 48.2155 43 47.8001 43 47.367V31.633C43 31.1999 43.158 30.7845 43.4393 30.4783C43.7206 30.172 44.1022 30 44.5 30C44.8978 30 45.2794 30.172 45.5607 30.4783C45.842 30.7845 46 31.1999 46 31.633V47.367C46 47.8001 45.842 48.2155 45.5607 48.5217C45.2794 48.828 44.8978 49 44.5 49Z" fill="#FF9F7A"/>
<path d="M44 31C47.84 31 50 28.48 50 24C50 19.52 47.84 17 44 17C40.16 17 38 19.52 38 24C38 28.48 40.16 31 44 31Z" fill="#FAFAFA" stroke="#FAFAFA" stroke-width="2.47" stroke-linecap="round" stroke-linejoin="round"/>
<rect x="0.5" y="0.5" width="65" height="65" rx="3.5" stroke="white"/>
</g>
<defs>
<linearGradient id="paint0_linear_240_852" x1="4.20889" y1="-23.7622" x2="52.7711" y2="71.9956" gradientUnits="userSpaceOnUse">
<stop stop-color="#FF8C5A"/>
<stop offset="1" stop-color="#EC3900"/>
</linearGradient>
</defs>
</svg>
