<svg width="84" height="93" viewBox="0 0 84 93" fill="none" xmlns="http://www.w3.org/2000/svg">
<circle cx="40.9202" cy="42.2425" r="40.9202" fill="black"/>
<path fill-rule="evenodd" clip-rule="evenodd" d="M46.3605 82.8367C46.1395 82.8601 45.9184 82.8835 45.6974 82.907V76.9794C47.2345 76.8036 48.7466 76.5223 50.2184 76.1556L46.3605 82.8367ZM41.518 0.0820312C52.9813 0.0820312 63.3645 4.72863 70.8744 12.2436C78.3893 19.7535 83.0359 30.1317 83.0359 41.6C83.0359 53.0633 78.3893 63.4415 70.8744 70.9564C65.7506 76.0803 59.2855 79.8729 52.0569 81.7667L56.6081 73.88C60.3857 72.1118 63.8015 69.7006 66.7101 66.7921C73.16 60.3421 77.1486 51.4357 77.1486 41.6C77.1486 31.7593 73.16 22.8529 66.7101 16.4079C60.2651 9.95794 51.3587 5.9694 41.518 5.9694C31.6823 5.9694 22.7759 9.95794 16.3259 16.4079C9.88093 22.8529 5.89238 31.7593 5.89238 41.6C5.89238 51.4357 9.88093 60.3421 16.3259 66.7921C20.7062 71.1674 26.2169 74.4075 32.3805 76.0401L36.2736 82.7864C26.9051 81.6059 18.511 77.3059 12.1615 70.9564C4.65162 63.4415 0 53.0633 0 41.6C0 30.1317 4.65162 19.7535 12.1615 12.2436C19.6765 4.72863 30.0547 0.0820312 41.518 0.0820312ZM38.0468 77.0548C38.298 77.0816 38.5492 77.1033 38.8003 77.1201V78.3659L38.0468 77.0598V77.0548Z" fill="#EFC37F"/>
<path d="M41.0083 86.5886V36.9177C34.2921 48.5518 21.2565 45.156 11.3906 35.2852L26.1995 60.9394L41.0083 86.5886Z" fill="#EFC37F"/>
<path d="M43.4883 92.2156V42.5447C50.2045 54.1788 63.2401 50.783 73.1059 40.9121L58.2971 66.5613L43.4883 92.2156Z" fill="#EFC37F"/>
<path d="M60.1474 39.5905C60.1474 36.4358 57.5956 33.8789 54.4409 33.8789C51.2913 33.8789 48.7344 36.4358 48.7344 39.5905C48.7344 42.7401 51.2913 45.297 54.4409 45.297C57.5956 45.297 60.1474 42.7401 60.1474 39.5905Z" fill="#EFC37F"/>
<path d="M34.0018 33.9398C34.0018 30.8102 31.465 28.2734 28.3354 28.2734C25.2009 28.2734 22.6641 30.8102 22.6641 33.9398C22.6641 37.0693 25.2009 39.6111 28.3354 39.6111C31.465 39.6111 34.0018 37.0693 34.0018 33.9398Z" fill="#EFC37F"/>
</svg>
